<svg xmlns="http://www.w3.org/2000/svg" style="width : 30%" fill="#d1d1d1" viewBox="0 0 24 24"><path stroke="#000" stroke-linecap="round" stroke-linejoin="round" d="M19.4947 3.40125L12.4204 10.253C11.1042 9.61564 10.3639 10.014 8.06061 11.2887C6.21799 12.3085 3.94762 11.7137 3.04276 11.2887C2.77953 14.858 3.78995 17.0203 4.47545 17.6842C5.92322 17.5567 8.37905 15.9266 9.36617 15.3158C8.7739 16.718 6.62816 18.4944 5.94267 19.1053C6.40332 19.424 8.3287 20.8938 8.8771 21C10.3443 20.0526 13.3145 16.5456 13.7678 14.8421C14.2738 12.9408 14.1517 12.0575 13.7678 11.5263L20.4818 4.43698C20.7834 4.17141 21.2715 3.54466 20.8109 3.16224C20.3502 2.77981 19.7415 3.16224 19.4947 3.40125Z"/></svg>