<svg xmlns="http://www.w3.org/2000/svg" fill="#cfcfcfb8" data-name="Layer 1" viewBox="0 0 512 512"><path fill="#cfcfcfb8" d="M416.51318,95.48682A226.99992,226.99992,0,1,0,95.48682,416.51318,226.99992,226.99992,0,1,0,416.51318,95.48682ZM256,468C139.103,468,44,372.897,44,256S139.103,44,256,44s212,95.103,212,212S372.897,468,256,468ZM165.5,213A35.5,35.5,0,1,0,130,177.5,35.54028,35.54028,0,0,0,165.5,213Zm0-56A20.5,20.5,0,1,1,145,177.5,20.52325,20.52325,0,0,1,165.5,157Zm181,56A35.5,35.5,0,1,0,311,177.5,35.54028,35.54028,0,0,0,346.5,213Zm0-56A20.5,20.5,0,1,1,326,177.5,20.52325,20.52325,0,0,1,346.5,157Zm41.95947,128.13037a7.49875,7.49875,0,0,0-7.27832-.356A284.51645,284.51645,0,0,1,257.5,314h-1.48a284.55042,284.55042,0,0,1-125.2002-29.2251A7.4999,7.4999,0,0,0,120,291.5a132.31839,132.31839,0,0,0,79.15625,121.32324A131.47888,131.47888,0,0,0,252.5,424h7a132.5854,132.5854,0,0,0,127.794-97.37988A133.06894,133.06894,0,0,0,392,291.5,7.5003,7.5003,0,0,0,388.45947,285.13037ZM259.5,409h-7a116.58737,116.58737,0,0,1-46.022-9.36151C219.72247,392.87823,237.33765,389,256.002,389c18.66236,0,36.27472,3.87708,49.51734,10.63538A116.56076,116.56076,0,0,1,259.5,409Zm83.08691-34.41309a117.57015,117.57015,0,0,1-21.38024,16.93219C305.07166,380.48517,281.17853,374,256.002,374c-25.18377,0-49.08508,6.48926-65.2218,17.52954a116.811,116.811,0,0,1-46.07483-53.136,299.90773,299.90773,0,0,0,111.31323,21.61036c.5044,0,1.01612-.00147,1.52051-.00391A300.0232,300.0232,0,0,0,367.2478,338.40454,117.85926,117.85926,0,0,1,342.58691,374.58691ZM373.6593,319.347A284.87054,284.87054,0,0,1,257.46094,345c-.49219.00293-.97412.00391-1.46387.00391a284.90251,284.90251,0,0,1-117.65942-25.65967,117.74477,117.74477,0,0,1-2.72388-15.77832A299.64178,299.64178,0,0,0,256.02,329h1.519a299.80874,299.80874,0,0,0,118.84668-25.43555A117.69794,117.69794,0,0,1,373.6593,319.347Z"/></svg>