<svg xmlns="http://www.w3.org/2000/svg" fill="#cfcfcfb8" width="100" height="100" enable-background="new 0 0 100 100" viewBox="0 0 100 100"><path d="M49.844,68h0.312c8.611,0,15.594-6.979,15.594-15.59V20.592C65.75,11.982,58.767,5,50.156,5h-0.312C41.23,5,34.25,11.982,34.25,20.592V52.41C34.25,61.021,41.23,68,49.844,68 M38.75,20.592c0-6.115,4.977-11.092,11.094-11.092h0.312c6.117,0,11.094,4.977,11.094,11.092V52.41c0,6.113-4.977,11.09-11.094,11.09h-0.312c-6.117,0-11.094-4.977-11.094-11.09V20.592z"/><path d="M70.25,36.5v15.998c0,11.03-8.972,20.002-20.004,20.002h-0.492c-11.032,0-20.004-8.972-20.004-20.002V36.5h-4.5v15.998c0,12.856,9.905,23.381,22.5,24.4V90.5h-13.5V95h31.5v-4.5h-13.5V76.898c12.595-1.02,22.5-11.544,22.5-24.4V36.5H70.25z"/></svg>